#!OML:ASF H:\LiuWeirdWalks\Patient Classification 1\Patient 1\Session 1\male.ASF
:FULLY-SPECIFIED
:DEGREES
2602
root 2.04838 17.8594 37.8999 365.284 190.044 -1.28062
lowerback 2.88221 0.549135 0.427733
upperback -0.415846 0.756025 0.74746
thorax -2.04644 0.373772 0.491911
lowerneck -17.9196 0.709446 9.97749
upperneck 21.5471 0.166698 -10.3296
head 9.79473 -0.489479 -5.35769
rclavicle -2.14687e-014 -1.66979e-014
rhumerus -33.4324 -17.1829 -72.7577
rradius 27.8829
rwrist -5.23659
rhand -18.155 -3.79572
rfingers 7.12502
rthumb 8.12073 -33.6197
lclavicle -2.14687e-014 -1.66979e-014
lhumerus -38.8969 4.74015 82.412
lradius 29.7338
lwrist 10.834
lhand -12.0324 -1.12233
lfingers 7.12502
lthumb 14.0258 28.3844
rfemur -17.7117 -12.5983 19.9292
rtibia 42.0913
rfoot -22.5727 -27.6741
rtoes -0.827523
lfemur -15.2603 -3.78153 -22.249
ltibia 29.0447
lfoot -14.11 7.82962
ltoes -6.51368
2603
root 2.03972 17.8606 37.9002 365.281 190.191 -1.19233
lowerback 2.9484 0.513346 0.453374
upperback -0.416634 0.709714 0.741401
thorax -2.08375 0.350275 0.472837
lowerneck -18.0192 0.693907 9.92682
upperneck 21.6298 0.137625 -10.2629
head 9.83949 -0.500854 -5.33406
rclavicle -3.762e-014 1.19271e-015
rhumerus -33.5078 -17.0469 -72.9356
rradius 28.0751
rwrist -5.69596
rhand -18.2549 -3.83923
rfingers 7.12502
rthumb 8.02432 -33.6669
lclavicle -3.762e-014 1.19271e-015
lhumerus -38.8267 4.44443 82.4666
lradius 30.0472
lwrist 11.1924
lhand -12.4267 -1.13519
lfingers 7.12502
lthumb 13.6457 28.3975
rfemur -17.936 -12.5298 20.098
rtibia 42.2483
rfoot -22.9578 -27.0777
rtoes -1.42752
lfemur -15.305 -3.81727 -22.1718
ltibia 29.0893
lfoot -14.1433 7.70502
ltoes -6.52453
2604
root 2.03211 17.862 37.8989 365.263 190.291 -1.08153
lowerback 3.00875 0.497289 0.477753
upperback -0.414249 0.689691 0.749722
thorax -2.1149 0.339898 0.468118
lowerneck -18.1817 0.638968 9.77339
upperneck 21.871 0.062255 -10.1447
head 9.94734 -0.540028 -5.289
rclavicle -1.76918e-014 8.74653e-015
rhumerus -33.5928 -16.8781 -73.111
rradius 28.2863
rwrist -6.22894
rhand -18.3743 -3.91893
rfingers 7.12502
rthumb 7.90906 -33.751
lclavicle -1.76918e-014 8.74653e-015
lhumerus -38.7597 4.16838 82.5217
lradius 30.3449
lwrist 11.5815
lhand -12.7973 -1.15815
lfingers 7.12502
lthumb 13.2886 28.3982
rfemur -18.1196 -12.3668 20.2911
rtibia 42.3047
rfoot -23.284 -26.3631
rtoes -2.04557
lfemur -15.3295 -3.85338 -22.0699
ltibia 29.1404
lfoot -14.1824 7.63407
ltoes -6.5241
2605
root 2.02557 17.8633 37.8959 365.219 190.347 -0.95235
lowerback 3.04367 0.530431 0.454847
upperback -0.385584 0.733233 0.789128
thorax -2.10611 0.361835 0.519111
lowerneck -18.2713 0.559928 9.66165
upperneck 21.9772 -0.041777 -10.0679
head 9.99016 -0.590738 -5.26188
rclavicle 1.99779e-014 6.36111e-015
rhumerus -33.6849 -16.7919 -73.1896
rradius 28.4758
rwrist -6.62651
rhand -18.435 -3.99399
rfingers 7.12502
rthumb 7.85047 -33.8282
lclavicle 1.99779e-014 6.36111e-015
lhumerus -38.6519 3.84409 82.6461
lradius 30.6157
lwrist 11.978
lhand -13.1941 -1.16542
lfingers 7.12502
lthumb 12.9061 28.4155
rfemur -18.2416 -12.1012 20.4985
rtibia 42.2537
rfoot -23.5661 -25.582
rtoes -2.6952
lfemur -15.3183 -3.87864 -21.9483
ltibia 29.1938
lfoot -14.2268 7.60441
ltoes -6.52377
2606
root 2.01716 17.8652 37.8924 365.265 190.478 -0.830688
lowerback 2.95213 0.549455 0.438974
upperback -0.362796 0.757153 0.837418
thorax -2.03234 0.373983 0.577425
lowerneck -18.3101 0.472747 9.5626
upperneck 21.9974 -0.15217 -10.0068
head 9.99204 -0.643237 -5.23821
rclavicle 1.09332e-015 1.19271e-015
rhumerus -33.7564 -16.8424 -73.1565
rradius 28.5764
rwrist -6.53266
rhand -18.2515 -3.90099
rfingers 7.12502
rthumb 8.0276 -33.7285
lclavicle 1.09332e-015 1.19271e-015
lhumerus -38.5174 3.51191 82.8056
lradius 30.8815
lwrist 12.4047
lhand -13.6039 -1.14504
lfingers 7.12502
lthumb 12.511 28.4604
rfemur -18.4302 -11.8407 20.7109
rtibia 42.0999
rfoot -23.7714 -24.7962
rtoes -3.3466
lfemur -15.4125 -4.02882 -21.831
ltibia 29.2511
lfoot -14.2429 7.61711
ltoes -6.52428
2607
root 2.01036 17.8668 37.8868 365.282 190.565 -0.697855
lowerback 2.87317 0.580026 0.406028
upperback -0.335647 0.795936 0.896416
thorax -1.96174 0.393672 0.655577
lowerneck -18.2963 0.406344 9.50441
upperneck 21.9552 -0.236151 -9.96458
head 9.96484 -0.680825 -5.22094
rclavicle -4.62174e-015 -1.98785e-014
rhumerus -33.8376 -16.9579 -73.0535
rradius 28.6022
rwrist -6.02916
rhand -17.9166 -3.72162
rfingers 7.12502
rthumb 8.35086 -33.5366
lclavicle -4.62174e-015 -1.98785e-014
lhumerus -38.4015 3.18007 82.9705
lradius 31.1442
lwrist 12.8388
lhand -14.0293 -1.10453
lfingers 7.12502
lthumb 12.1009 28.5256
rfemur -18.5482 -11.4804 20.9276
rtibia 41.8378
rfoot -23.882 -24.0349
rtoes -4.01403
lfemur -15.4642 -4.13809 -21.698
ltibia 29.3057
lfoot -14.2717 7.6311
ltoes -6.54059
2608
root 2.00452 17.8683 37.8796 365.298 190.64 -0.576642
lowerback 2.79472 0.600136 0.362798
upperback -0.316624 0.820534 0.952523
thorax -1.89986 0.406365 0.737197
lowerneck -18.1864 0.381138 9.53914
upperneck 21.7681 -0.266751 -9.97917
head 9.87371 -0.68942 -5.2244
rclavicle -6.31141e-015 3.97569e-016
rhumerus -33.9209 -17.1239 -72.9025
rradius 28.5488
rwrist -5.12684
rhand -17.4384 -3.43145
rfingers 7.12502
rthumb 8.81233 -33.2275
lclavicle -6.31141e-015 3.97569e-016
lhumerus -38.3216 2.86716 83.1203
lradius 31.4145
lwrist 13.2955
lhand -14.4131 -1.09975
lfingers 7.12502
lthumb 11.7307 28.5518
rfemur -18.6213 -11.0531 21.1227
rtibia 41.4748
rfoot -23.8852 -23.3079
rtoes -4.6287
lfemur -15.5029 -4.22998 -21.5729
ltibia 29.3531
lfoot -14.3059 7.63281
ltoes -6.56915
